<svg xmlns="http://www.w3.org/2000/svg" class="svg-icon" style="width:1em;height:1em;vertical-align:middle;fill:currentColor;overflow:hidden" fill="#fff" stroke="#fff" version="1.1" viewBox="0 0 1024 1024"><path d="M465.454545 0l0 93.090909L26.949818 93.090909C26.949818 93.090909 0 93.090909 0 116.363636 0 139.636364 26.949818 139.636364 26.949818 139.636364l970.100364 0C997.050182 139.636364 1024 139.636364 1024 116.363636 1024 93.090909 997.050182 93.090909 997.050182 93.090909L558.545455 93.090909 558.545455 0 465.454545 0z"/><path d="M156.066909 186.181818C156.066909 186.181818 46.545455 186.181818 46.545455 292.584727l0 531.968C46.545455 930.909091 156.066909 930.909091 156.066909 930.909091l711.866182 0c0 0 109.521455 0 109.521455-106.402909L977.454545 292.584727C977.454545 186.181818 867.933091 186.181818 867.933091 186.181818L156.066909 186.181818z"/><path d="M26.949818 1024l970.100364 0c0 0 26.949818 0 26.949818-23.272727 0-23.272727-26.949818-23.272727-26.949818-23.272727L26.949818 977.454545C26.949818 977.454545 0 977.454545 0 1000.727273 0 1024 26.949818 1024 26.949818 1024z"/></svg>