<svg xmlns="http://www.w3.org/2000/svg" class="svg-icon" style="width:1em;height:1em;vertical-align:middle;fill:currentColor;overflow:hidden" version="1.1" viewBox="0 0 1024 1024"><path fill="#fff" d="M857.6 716.8H166.4c-21.1712 0-38.4-17.2288-38.4-38.4V140.8c0-21.1712 17.2288-38.4 38.4-38.4h691.2c21.1712 0 38.4 17.2288 38.4 38.4v128h-25.6V140.8a12.8 12.8 0 0 0-12.8-12.8H166.4a12.8 12.8 0 0 0-12.8 12.8v537.6a12.8 12.8 0 0 0 12.8 12.8h691.2a12.8 12.8 0 0 0 12.8-12.8V345.6h25.6v332.8c0 21.1712-17.2288 38.4-38.4 38.4z"/><path fill="#fff" d="M870.4 294.4h25.6v25.6h-25.6zM755.2 716.8H601.6a12.8 12.8 0 0 1-12.8-12.8v-102.4a12.8 12.8 0 0 1 12.8-12.8h153.6a12.8 12.8 0 0 1 12.8 12.8v102.4a12.8 12.8 0 0 1-12.8 12.8z m-140.8-25.6h128v-76.8H614.4v76.8zM550.4 716.8h-102.4a12.8 12.8 0 0 1-12.8-12.8v-76.8a12.8 12.8 0 0 1 12.8-12.8h102.4a12.8 12.8 0 0 1 12.8 12.8v76.8a12.8 12.8 0 0 1-12.8 12.8z m-89.6-25.6h76.8v-51.2h-76.8v51.2z"/><path fill="#fff" d="M550.4 640h51.2v25.6h-51.2z"/><path fill="#fff" d="M832 665.6h-76.8v-25.6h64V179.2H204.8v460.8h243.2v25.6H192a12.8 12.8 0 0 1-12.8-12.8V166.4a12.8 12.8 0 0 1 12.8-12.8h640a12.8 12.8 0 0 1 12.8 12.8v486.4a12.8 12.8 0 0 1-12.8 12.8z"/><path fill="#fff" d="M640 640h25.6v25.6h-25.6zM691.2 640h25.6v25.6h-25.6zM307.2 345.6h460.8v25.6H307.2zM704 448h64v25.6h-64zM652.8 448h25.6v25.6h-25.6zM256 448h371.2v25.6H256zM256 550.4h256v25.6H256zM256 345.6h25.6v25.6h-25.6zM614.4 243.2h153.6v25.6H614.4zM563.2 243.2h25.6v25.6h-25.6zM256 243.2h281.6v25.6H256zM537.6 550.4h25.6v25.6h-25.6z"/></svg>