<svg class="svg-icon" style="width: 1em;height: 1em;vertical-align: middle;fill: currentColor;overflow: hidden;" viewBox="0 0 1024 1024" version="1.1" xmlns="http://www.w3.org/2000/svg"><path d="M373.333333 149.333333A224 224 0 0 0 341.333333 595.072v64.512A288.042667 288.042667 0 1 1 659.584 341.333333h-64.512A224.042667 224.042667 0 0 0 373.333333 149.333333z"  /><path d="M522.666667 384A138.666667 138.666667 0 0 0 384 522.666667v277.333333A138.666667 138.666667 0 0 0 522.666667 938.666667h277.333333A138.666667 138.666667 0 0 0 938.666667 800v-277.333333A138.666667 138.666667 0 0 0 800 384h-277.333333z m-74.666667 138.666667c0-41.216 33.450667-74.666667 74.666667-74.666667h277.333333c41.216 0 74.666667 33.450667 74.666667 74.666667v277.333333a74.666667 74.666667 0 0 1-74.666667 74.666667h-277.333333a74.666667 74.666667 0 0 1-74.666667-74.666667v-277.333333z"  /></svg>